<svg xmlns="http://www.w3.org/2000/svg" viewBox="0 0 600.14 567.22"><defs><style>.cls-1{fill:#aaa;}</style></defs><title>logo</title><g id="Layer_2" data-name="Layer 2"><path class="cls-1" d="M520,133a5.09,5.09,0,0,0-3.5-3.5c-2-5-7-8-7-8-1-28-39-29-39-29-46,1-51,58-53,65s-5,28-5,28l-12,30s-22,29-32,43-26,21-46,31-38,29-38,29C250,329,238,342,222,351s-14,14-22,21-4,11-4,11c-6,2-1,6-16,10s-26,18-26,18l-15,7c-22,7-27,18-31,17s-11,4-25,10-12,11-12,11-8,7-5,12,30,3,30,3-36,24-40,33,8,3,8,3,23-9,21-8-2,4-2,4c4-3,10-4,10-4-7,4-7,7-7,7s32-21,42-23-12,12-21,16-6,5-6,5c11,1,30-14,30-14,9-1,19-8,19-8,8,3,33-12,33-12-2,8,11-2,11-2,35,3,97-18,105-20s6,3,7,6-3,4-3,4l4-1v4h3l-2,2,4,1s0,3,4,4,8,13,14,19,2,9-3,9-7,3-10,3-6,4-6,4l91,1c5,4,8,3,8,3-4-1-4-6-4-6,11,2,10,8,10,8,1-4-1-11-1-11,3,0,6,4,6,4,0-12-8-9-16-8s-28,2-35,0-15-22-17-28,0-18,2-21,15-10,15-10c6,3,29-15,29-15,23-5,21-13,38-21s43-39,52-74-5-116-5-142,8-30,8-30c10-3,12-6,12-6a84.66,84.66,0,0,0,13,1c7,5,13,5,13,5l2,3C537,142,520,133,520,133ZM347.5,493.5s-8-12-14-20-3-17-3-17,2,5,12,17S347.5,493.5,347.5,493.5Z" transform="translate(-10.39 -33.67)"/></g><g id="Layer_4" data-name="Layer 4"><path class="cls-1" d="M514.5,92.5c-1-5-21-4-21-4-10,0-26-5-26-5,14.21,1.29,21.74,2.17,25.3,2.62-4.67-16.41-8.35-43.76-9.3-46.62s-14-12-47,1-26,20-22,31c2.9,8,3.7,18.07,3.92,23a104.85,104.85,0,0,1,35.08-10s-19,4-35,13c0,0-15,11-12,23s29,8,50-2S515.5,97.5,514.5,92.5Z" transform="translate(-10.39 -33.67)"/><path class="cls-1" d="M29.57,539.25a5,5,0,0,0,.21,1.36l13.95,48.12L59.66,534l6.39-2.1,2,1.05L84.5,588.73l14.78-50.84-9-3.67.63-2.31h23.27l.63,2.31L109,536.63a5.82,5.82,0,0,0-2.3,1.41,9.64,9.64,0,0,0-1.16,2.57L87.86,599l-7.76,1.89-2.1-.84L62.49,547.74,47.71,599l-8.07,1.89-2.1-.84-19-62.48-8.18-3.35.63-2.31H36.7l.63,2.31-5.77,2.41A2.78,2.78,0,0,0,29.57,539.25Z" transform="translate(-10.39 -33.67)"/><path class="cls-1" d="M124.13,591.77V560.42l-7.34-1.15-.63-2.31L130.52,552l2.1.84v41.51l8.28,3.35-.63,2.31H116.79l-.63-2.31,4.72-2a6.27,6.27,0,0,0,2.57-1.57A3.76,3.76,0,0,0,124.13,591.77Zm3.72-50.63a5.56,5.56,0,0,1-5.71-5.72,5.73,5.73,0,0,1,1.62-4.14,5.49,5.49,0,0,1,4.09-1.68,5.74,5.74,0,0,1,5.82,5.82,5.44,5.44,0,0,1-1.68,4.09A5.7,5.7,0,0,1,127.85,541.14Z" transform="translate(-10.39 -33.67)"/><path class="cls-1" d="M182.31,569.33q0-5.34-2.47-7.7t-7.91-2.36a45.2,45.2,0,0,0-10.9,1.36v33.76l8.28,3.35-.63,2.31H145.2l-.63-2.31,4.72-2a6.22,6.22,0,0,0,2.56-1.57,3.7,3.7,0,0,0,.69-2.41V560.42l-7.34-1.15-.63-2.31L158.09,552l2.1.84.21,2.93.42.21a30.53,30.53,0,0,1,14.88-4q15.11,0,15.1,16v26.31l8.28,3.35-.63,2.31H175l-.63-2.31,4.72-2a6.27,6.27,0,0,0,2.57-1.57,3.76,3.76,0,0,0,.68-2.41Z" transform="translate(-10.39 -33.67)"/><path class="cls-1" d="M227.38,558.75a19.53,19.53,0,0,0-7.39-1c-3.32,0-5.81.84-7.49,2.51a6.27,6.27,0,0,0-.94,3.46q0,4.41,5.34,6.4l10.69,3.77a15.33,15.33,0,0,1,7.24,5.09,13.06,13.06,0,0,1,2.72,8.23,11.68,11.68,0,0,1-5,10.16,19.83,19.83,0,0,1-11.79,3.57,25.31,25.31,0,0,1-11.32-2.26,20.41,20.41,0,0,1-6.66-4.76l5.35-8.71,2.62.74.42,7a18.57,18.57,0,0,0,9.33,2.1q9.53,0,9.53-6.5a5.48,5.48,0,0,0-1.67-4.19,14.91,14.91,0,0,0-5.45-2.83l-9.65-3.15a12.68,12.68,0,0,1-6.6-4.82,13,13,0,0,1-2.31-7.55,11.83,11.83,0,0,1,5.24-10.27A20.66,20.66,0,0,1,221.72,552a18.69,18.69,0,0,1,7.87,1.68c3.42,1.46,5.73,3.11,6.91,4.92l-5.76,8.18-2.52-.74Z" transform="translate(-10.39 -33.67)"/><path class="cls-1" d="M250.44,590.72V557.91h-7.33l-.63-2.31,8-3.56,4.62-9.75,3.88.73v9.86h12.47l1.15,1.25-1,4-12.58-.42v30.61q0,3.88,1.57,5.71t5.55,1.84h6l.52,2.93a39.05,39.05,0,0,1-11.63,2.1c-3.36,0-5.94-.94-7.76-2.83A10.13,10.13,0,0,1,250.44,590.72Z" transform="translate(-10.39 -33.67)"/><path class="cls-1" d="M299.29,600.89q-9.74,0-15.82-6.4t-6.08-18.08q0-11.68,6.7-18A23.06,23.06,0,0,1,300.55,552q9.75,0,15.83,6.39t6.08,18.09q0,11.68-6.71,18A23,23,0,0,1,299.29,600.89Zm-13-25.58q0,18.87,14.36,18.87a23.31,23.31,0,0,0,9-1.57q3.88-5,3.88-15,0-18.87-14.36-18.87a23.37,23.37,0,0,0-9,1.57Q286.3,565.34,286.3,575.31Z" transform="translate(-10.39 -33.67)"/><path class="cls-1" d="M366.7,569.33q0-5.34-2.46-7.7t-7.92-2.36a45.2,45.2,0,0,0-10.9,1.36v33.76l8.28,3.35-.63,2.31H329.59l-.63-2.31,4.72-2a6.27,6.27,0,0,0,2.57-1.57,3.76,3.76,0,0,0,.68-2.41V560.42l-7.34-1.15L329,557,342.48,552l2.1.84.21,2.93.42.21a30.53,30.53,0,0,1,14.88-4q15.11,0,15.1,16v26.31l8.28,3.35-.63,2.31H359.36l-.63-2.31,4.72-2a6.27,6.27,0,0,0,2.57-1.57,3.76,3.76,0,0,0,.68-2.41Z" transform="translate(-10.39 -33.67)"/><path class="cls-1" d="M443.54,600.89q-13.95,0-22.91-9.12t-9-25.69q0-16.56,9.75-25.78a32.81,32.81,0,0,1,23.37-9.23q9.75,0,15.1,4.3a20.88,20.88,0,0,1,5.14,5.24l-6.82,9.44-2.51-.74-.53-9.85A37.6,37.6,0,0,0,443,537.78a30.48,30.48,0,0,0-12.53,2.31Q421,548.9,421,565q0,14.15,7.34,21.75a24.67,24.67,0,0,0,18.55,7.6,39,39,0,0,0,17.51-4.51l1.57,3a29,29,0,0,1-8.65,5.35A33.74,33.74,0,0,1,443.54,600.89Z" transform="translate(-10.39 -33.67)"/><path class="cls-1" d="M546.79,540.61l2.41,53.46,9,3.67-.63,2.31H532.74l-.62-2.31,4.71-2.3q3.36-1.58,3.25-4.09L537.78,540l-20.13,58-6.5,2.1-2-1-19.61-58.91-2.93,54,8,3.67-.63,2.31h-22l-.63-2.31,5.77-2.41c1.75-.77,2.76-1.53,3-2.3q.11-.53.21-1.68L483,537.89l-9-3.67.62-2.31h21.18L497.1,533l17.72,54.72,18.55-55.77h21.81l.63,2.31L550,536.63Q546.68,538,546.79,540.61Z" transform="translate(-10.39 -33.67)"/><path class="cls-1" d="M598.79,539.46q-3.46-1.89-10.75-1.89t-11.9,3.88a11,11,0,0,0-1.25,5.77q0,8.07,8.59,11.32l13.63,5.24q13.41,5.13,13.42,18.55,0,9.12-6.4,13.84t-16.56,4.72q-14,0-23.17-8.6l6.71-11.42,2.52.73,1.57,10.06c2.59,1.82,6.32,2.73,11.22,2.73q15.62,0,15.62-10.59a9.5,9.5,0,0,0-2.73-7,24.3,24.3,0,0,0-8.49-4.93l-12.06-4.61q-12.25-4.72-12.26-17,0-9.22,6.5-14.21t16.56-5q12.27,0,19.71,8.6l-7.44,10.38-2.52-.74Z" transform="translate(-10.39 -33.67)"/></g></svg>