<?xml version="1.0" encoding="utf-8"?>
<!-- Generator: Adobe Illustrator 24.0.1, SVG Export Plug-In . SVG Version: 6.00 Build 0)  -->
<svg version="1.1" id="Layer_1" xmlns="http://www.w3.org/2000/svg" xmlns:xlink="http://www.w3.org/1999/xlink" x="0px" y="0px"
	 viewBox="0 0 17.2 24.2" style="enable-background:new 0 0 17.2 24.2;" xml:space="preserve">
<style type="text/css">
	.st0{stroke:#000000;stroke-miterlimit:10;}
	.st1{fill:none;}
	.st2{fill:#8CD4ED;}
</style>
<path class="st0" d="M16.6,8.6c0-4.5-3.6-8.1-8.1-8.1S0.4,4.1,0.4,8.6c0,6.1,8.1,14.9,8.1,14.9S16.6,14.7,16.6,8.6z"/>
<path class="st1" d="M-4.3,0.2h24v24h-24V0.2z"/>
<circle class="st2" cx="8.5" cy="8.9" r="7.1"/>
<path d="M12.1,5.8C12.1,5.8,12.1,5.8,12.1,5.8c-0.1-0.2-0.2-0.2-0.2-0.2c0-0.2-0.1-0.3-0.2-0.4C11.9,5.2,12,5.1,12,5.1
	C12,5,11.6,5,11.6,5c-0.2,0-0.5-0.1-0.5-0.1c0.3,0,0.4,0,0.5,0c-0.1-0.3-0.2-0.8-0.2-0.9c0-0.1-0.3-0.2-0.9,0
	C9.9,4.3,10,4.5,10.1,4.7c0.1,0.2,0.1,0.3,0.1,0.4c0.2-0.1,0.4-0.2,0.7-0.2c0,0-0.4,0.1-0.7,0.2c0,0-0.3,0.2-0.2,0.4
	c0,0.1,0.2,0.2,0.4,0.1c-0.1,0.3-0.1,0.5-0.1,0.6c0,0.1-0.1,0.5-0.1,0.5L9.8,7.4c0,0-0.4,0.5-0.6,0.8C9.1,8.5,8.7,8.6,8.4,8.8
	C8,9,7.7,9.3,7.7,9.3C7,9.5,6.8,9.8,6.5,9.9c-0.3,0.2-0.3,0.3-0.4,0.4C5.9,10.5,6,10.5,6,10.5c-0.1,0,0,0.1-0.3,0.2
	c-0.3,0.1-0.5,0.3-0.5,0.3l-0.3,0.1c-0.4,0.1-0.5,0.3-0.6,0.3c-0.1,0-0.2,0.1-0.5,0.2c-0.3,0.1-0.2,0.2-0.2,0.2S3.5,12,3.6,12.1
	c0.1,0.1,0.6,0.1,0.6,0.1s-0.7,0.5-0.8,0.6c-0.1,0.2,0.2,0.1,0.2,0.1s0.4-0.1,0.4-0.2c0,0,0,0.1,0,0.1c0.1-0.1,0.2-0.1,0.2-0.1
	c-0.1,0.1-0.1,0.1-0.1,0.1s0.6-0.4,0.8-0.4c0.2,0-0.2,0.2-0.4,0.3c-0.2,0.1-0.1,0.1-0.1,0.1c0.2,0,0.6-0.3,0.6-0.3
	c0.2,0,0.4-0.2,0.4-0.2c0.2,0.1,0.6-0.2,0.6-0.2c0,0.2,0.2,0,0.2,0c0.7,0.1,1.8-0.3,2-0.4c0.1,0,0.1,0.1,0.1,0.1
	c0,0.1-0.1,0.1-0.1,0.1l0.1,0V12h0.1l0,0l0.1,0c0,0,0,0.1,0.1,0.1c0.1,0,0.2,0.2,0.3,0.4c0.1,0.1,0,0.2-0.1,0.2
	c-0.1,0-0.1,0.1-0.2,0.1c-0.1,0-0.1,0.1-0.1,0.1l1.7,0c0.1,0.1,0.2,0.1,0.2,0.1c-0.1,0-0.1-0.1-0.1-0.1c0.2,0,0.2,0.2,0.2,0.2
	c0-0.1,0-0.2,0-0.2c0.1,0,0.1,0.1,0.1,0.1c0-0.2-0.2-0.2-0.3-0.2c-0.2,0-0.5,0-0.7,0c-0.1,0-0.3-0.4-0.3-0.5c0-0.1,0-0.3,0-0.4
	c0-0.1,0.3-0.2,0.3-0.2c0.1,0.1,0.5-0.3,0.5-0.3c0.4-0.1,0.4-0.2,0.7-0.4c0.3-0.1,0.8-0.7,1-1.4c0.2-0.7-0.1-2.2-0.1-2.7
	s0.2-0.6,0.2-0.6c0.2-0.1,0.2-0.1,0.2-0.1c0.1,0,0.2,0,0.2,0c0.1,0.1,0.2,0.1,0.2,0.1l0,0.1C12.4,6,12.1,5.8,12.1,5.8z M8.8,12.6
	c0,0-0.2-0.2-0.3-0.4c-0.1-0.2-0.1-0.3-0.1-0.3s0,0.1,0.2,0.3C8.9,12.5,8.8,12.6,8.8,12.6z"/>
</svg>
